<?xml version="1.0" encoding="UTF-8" standalone="no"?>
<!-- Created with Inkscape (http://www.inkscape.org/) -->

<svg
   width="210mm"
   height="297mm"
   viewBox="0 0 210 297"
   version="1.1"
   id="svg5"
   inkscape:version="1.2.1 (9c6d41e410, 2022-07-14)"
   sodipodi:docname="drawing.svg"
   xmlns:inkscape="http://www.inkscape.org/namespaces/inkscape"
   xmlns:sodipodi="http://sodipodi.sourceforge.net/DTD/sodipodi-0.dtd"
   xmlns="http://www.w3.org/2000/svg"
   xmlns:svg="http://www.w3.org/2000/svg">
  <sodipodi:namedview
     id="namedview7"
     pagecolor="#505050"
     bordercolor="#eeeeee"
     borderopacity="1"
     inkscape:showpageshadow="0"
     inkscape:pageopacity="0"
     inkscape:pagecheckerboard="0"
     inkscape:deskcolor="#505050"
     inkscape:document-units="mm"
     showgrid="false"
     inkscape:zoom="4.051698"
     inkscape:cx="110.94114"
     inkscape:cy="258.53358"
     inkscape:window-width="1920"
     inkscape:window-height="991"
     inkscape:window-x="-9"
     inkscape:window-y="-9"
     inkscape:window-maximized="1"
     inkscape:current-layer="layer1" />
  <defs
     id="defs2" />
  <g
     inkscape:label="Layer 1"
     inkscape:groupmode="layer"
     id="layer1">
    <rect
       style="fill:#000000;stroke-width:0.15706"
       id="rect325"
       width="2.6781716"
       height="18.503883"
       x="29.345701"
       y="49.200249"
       transform="matrix(1,0,-0.25952599,0.96573612,0,0)" />
    <rect
       style="fill:#999999;stroke-width:0.15706"
       id="rect325-3"
       width="2.6781716"
       height="18.503883"
       x="38.885391"
       y="49.128532"
       transform="matrix(1,0,-0.25952599,0.96573612,0,0)" />
    <rect
       style="fill:#ffffff;stroke-width:0.140405"
       id="rect325-3-3"
       width="2.1656821"
       height="18.28694"
       x="-18.303844"
       y="48.599792"
       transform="matrix(-1,0,0.21235329,0.97719296,0,0)" />
    <rect
       style="fill:#cccccc;stroke-width:0.15706"
       id="rect325-3-2"
       width="2.6781716"
       height="18.503883"
       x="47.893051"
       y="49.319782"
       transform="matrix(1,0,-0.25952599,0.96573612,0,0)" />
    <rect
       style="fill:#000000;stroke-width:0.15706"
       id="rect325-3-2-0"
       width="2.6781716"
       height="18.503883"
       x="-6.3821268"
       y="49.246151"
       transform="matrix(-1,0,0.25952599,0.96573612,0,0)" />
    <rect
       style="fill:#000000;stroke-width:0.15706"
       id="rect325-6"
       width="2.6781716"
       height="18.503883"
       x="33.8027"
       y="72.868011"
       transform="matrix(1,0,-0.25952599,0.96573612,0,0)" />
    <rect
       style="fill:#000000;stroke-width:0.15706"
       id="rect325-3-2-0-0"
       width="2.6781716"
       height="18.503883"
       x="1.4456737"
       y="72.91391"
       transform="matrix(-1,0,0.25952599,0.96573612,0,0)" />
    <rect
       style="fill:#1a1a1a;stroke-width:0.151881"
       id="rect325-6-6"
       width="2.514514"
       height="18.429903"
       x="42.048527"
       y="72.657814"
       transform="matrix(1,0,-0.24464499,0.96961272,0,0)" />
    <rect
       style="fill:#999999;stroke-width:0.128511"
       id="rect325-6-6-5"
       width="1.8386819"
       height="18.044203"
       x="15.020585"
       y="71.22554"
       transform="matrix(1,0,0.13866686,0.99033908,0,0)" />
    <rect
       style="fill:#b3b3b3;stroke-width:0.128511"
       id="rect325-6-6-5-5"
       width="1.8386819"
       height="18.044203"
       x="-41.694061"
       y="71.22551"
       transform="matrix(-1,0,-0.13866686,0.99033908,0,0)" />
  </g>
</svg>
